<svg width="100%" height="100%" viewBox="0 0 3467 3467" version="1.1" xmlns="http://www.w3.org/2000/svg" xmlns:xlink="http://www.w3.org/1999/xlink" xml:space="preserve" xmlns:serif="http://www.serif.com/" style="fill-rule:evenodd;clip-rule:evenodd;stroke-linejoin:round;stroke-miterlimit:2;"><g id="pic"><g><g><g><clipPath id="_clip1"><path d="M100.273,1733.33c-0,62.159 50.504,112.663 112.663,112.663c62.159,0 112.663,-50.504 112.663,-112.663c0,-62.159 -50.504,-112.663 -112.663,-112.663c-62.159,0 -112.663,50.504 -112.663,112.663"/></clipPath><g clip-path="url(#_clip1)"><rect x="30.344" y="-573.208" width="3374.34" height="4023.68" style="fill:url(#_Linear2);"/></g></g><g><clipPath id="_clip3"><path d="M3141.07,1733.33c-0,62.159 50.504,112.663 112.663,112.663c62.159,0 112.663,-50.504 112.663,-112.663c-0,-62.159 -50.504,-112.663 -112.663,-112.663c-62.159,0 -112.663,50.504 -112.663,112.663"/></clipPath><g clip-path="url(#_clip3)"><rect x="134.127" y="-270.183" width="3374.34" height="4023.68" style="fill:url(#_Linear4);"/></g></g><g><clipPath id="_clip5"><path d="M481.552,297.017l429.562,0c10.545,0 14.43,13.875 4.995,18.87c-162.057,93.793 -306.355,214.226 -427.343,355.749c-6.104,7.215 -17.759,2.775 -17.759,-6.66l-0,-357.414c0.555,-6.105 4.995,-10.545 10.545,-10.545Zm2034.6,0l468.967,0c5.55,0 9.99,4.44 9.99,9.99l-0,357.414c-0,9.435 -11.655,13.875 -17.76,6.66c-129.313,-150.403 -285.82,-278.05 -461.197,-374.064m-2247.16,-192.027l0,899.085c-70.484,140.968 -121.543,293.036 -148.737,453.428c-1.11,6.105 3.884,12.21 9.989,12.21l180.372,-0c4.995,-0 8.88,-3.33 9.99,-8.325c122.653,-639.35 669.874,-1129.41 1335.86,-1164.37l152.623,0c327.444,17.205 626.029,144.853 859.68,345.759c4.44,3.885 4.995,11.1 0.555,14.985l-151.512,151.513c-3.885,3.885 -9.99,3.885 -13.875,0.555c-209.231,-174.822 -477.847,-280.826 -771.437,-280.826c-291.37,0 -558.876,104.339 -767.552,277.496c-4.44,3.885 -4.995,11.1 -0.555,14.984l125.982,125.983c3.885,3.885 9.435,3.885 13.875,0.555c145.408,-116.548 324.115,-193.691 518.917,-214.781c6.105,-0.555 11.099,3.885 11.099,9.99l0,220.886c0,4.995 -3.884,9.435 -8.879,9.99c-372.399,52.169 -660.439,372.399 -660.439,759.227c-0,170.938 56.609,328.555 151.512,456.203c3.885,4.995 11.1,5.55 15.54,1.11l126.538,-126.538c3.33,-3.33 3.885,-8.88 1.11,-12.765c-66.599,-98.788 -103.784,-219.776 -96.569,-349.644c16.095,-288.595 248.636,-521.137 537.231,-537.231c129.868,-7.215 250.856,29.969 349.645,96.568c3.885,2.775 9.434,2.22 12.764,-1.11l126.538,-126.538c4.44,-4.44 3.885,-11.655 -1.11,-15.539c-100.453,-74.369 -219.221,-124.873 -347.979,-143.188c-4.995,-0.555 -8.88,-4.995 -8.88,-9.99l0,-220.331c0,-6.105 5.55,-11.1 11.1,-9.99c502.822,55.499 895.2,482.842 895.2,1000.09c0,237.536 -83.248,456.203 -221.441,628.805c-3.33,3.885 -2.775,9.99 0.555,13.875l127.648,124.318c4.44,4.44 11.1,3.885 14.984,-0.555c173.158,-208.677 277.496,-476.182 277.496,-767.553c-0,-290.815 -103.783,-558.32 -276.386,-766.442c-3.329,-3.885 -3.329,-9.99 0.555,-13.875l151.513,-151.512c4.44,-4.44 11.1,-3.885 14.985,0.555c157.617,185.367 269.725,411.248 317.454,659.329c1.11,4.995 4.995,8.325 9.99,8.325l180.372,-0c6.105,-0 11.1,-5.55 9.99,-12.21c-27.194,-160.392 -78.254,-312.46 -148.737,-453.428l-0,-899.085c-0,-5.55 -4.44,-9.99 -9.99,-9.99l-2907.04,0c-5.55,0 -10.545,4.44 -10.545,9.99Z"/></clipPath><g clip-path="url(#_clip5)"><rect x="30.344" y="-573.208" width="3374.34" height="4023.68" style="fill:url(#_Linear6);"/></g></g><g><clipPath id="_clip7"><path d="M489.321,2795.03c120.988,141.522 265.286,261.955 427.343,355.749c8.88,4.995 5.55,18.87 -4.995,18.87l-429.562,-0c-5.55,-0 -9.99,-4.44 -9.99,-9.99l-0,-357.414c-0.555,-9.99 11.1,-14.43 17.204,-7.215Zm2505.78,-21.645l-0,385.719c-0,5.55 -4.44,9.99 -9.99,9.99l-430.118,-0c-10.545,-0 -14.43,-13.875 -4.995,-18.87c169.827,-98.234 320.785,-225.881 445.103,-376.839m-2465.82,-1040.05c-0,293.59 106.003,562.206 280.825,771.438c3.33,3.884 3.33,9.989 -0.555,13.874l-151.512,151.513c-4.44,4.44 -11.1,3.885 -14.985,-0.555c-160.392,-186.477 -273.611,-414.023 -321.895,-664.324c-1.11,-4.995 -4.995,-8.325 -9.99,-8.325l-180.372,-0c-6.105,-0 -11.099,5.55 -9.989,12.21c27.194,160.392 78.253,312.46 148.737,453.427l0,899.085c0,5.55 4.44,9.99 9.99,9.99l2907.6,0c5.55,0 9.99,-4.44 9.99,-9.99l-0,-899.085c70.483,-140.967 121.543,-293.035 148.737,-453.427c1.11,-6.105 -3.885,-12.21 -9.99,-12.21l-180.372,-0c-4.995,-0 -8.88,3.33 -9.99,8.325c-122.653,639.349 -669.873,1129.41 -1336.42,1164.37l-152.068,-0c-325.225,-17.205 -622.145,-142.633 -855.241,-341.32c-4.44,-3.885 -4.995,-11.1 -0.555,-14.985l151.513,-151.512c3.885,-3.885 9.435,-3.885 13.875,-0.555c208.121,172.602 475.627,276.385 766.442,276.385c291.37,0 558.876,-104.338 767.552,-277.495c4.44,-3.885 4.995,-11.1 0.555,-14.985l-125.983,-125.983c-3.885,-3.885 -9.435,-3.885 -13.875,-0.555c-145.407,116.548 -323.559,193.692 -517.806,214.782c-6.105,0.555 -11.1,-3.885 -11.1,-9.99l0,-219.776c0,-4.995 3.885,-9.435 8.88,-9.99c372.399,-52.724 659.329,-372.954 659.329,-759.228c0,-170.937 -56.609,-328.554 -151.512,-456.202c-3.885,-4.995 -11.1,-5.55 -15.54,-1.11l-126.538,125.428c-3.33,3.33 -3.885,8.88 -1.11,12.765c67.154,98.788 103.783,219.776 96.568,349.644c-16.094,288.04 -248.635,520.581 -536.676,536.676c-129.868,7.215 -250.856,-29.415 -349.644,-96.568c-3.885,-2.775 -9.435,-2.22 -12.765,1.109l-126.538,126.538c-4.44,4.44 -3.885,11.655 1.11,15.54c100.454,74.924 219.777,124.873 349.09,143.743c4.995,0.555 8.879,4.995 8.879,9.99l0,220.331c0,6.105 -5.549,11.1 -11.099,9.99c-503.377,-54.944 -896.311,-482.287 -896.311,-1000.09c0,-237.536 83.249,-456.202 221.442,-628.804c3.33,-3.885 2.775,-9.99 -0.555,-13.875l-125.983,-125.983c-4.44,-4.44 -11.1,-3.885 -14.985,0.555c-174.822,210.342 -279.16,477.847 -279.16,769.217"/></clipPath><g clip-path="url(#_clip7)"><rect x="30.344" y="-573.208" width="3374.34" height="4023.68" style="fill:url(#_Linear8);"/></g></g></g></g></g><defs><linearGradient id="_Linear2" x1="0" y1="0" x2="1" y2="0" gradientUnits="userSpaceOnUse" gradientTransform="matrix(3058.38,0,0,3058.38,197.132,1438.69)"><stop offset="0" style="stop-color:#feb17a;stop-opacity:1"/><stop offset="0.35" style="stop-color:#fe8d65;stop-opacity:1"/><stop offset="0.67" style="stop-color:#c86b51;stop-opacity:1"/><stop offset="1" style="stop-color:#ac5947;stop-opacity:1"/></linearGradient><linearGradient id="_Linear4" x1="0" y1="0" x2="1" y2="0" gradientUnits="userSpaceOnUse" gradientTransform="matrix(3058.3,0,0,3058.3,300.925,1741.88)"><stop offset="0" style="stop-color:#feb17a;stop-opacity:1"/><stop offset="0.35" style="stop-color:#fe8d65;stop-opacity:1"/><stop offset="0.67" style="stop-color:#c86b51;stop-opacity:1"/><stop offset="1" style="stop-color:#ac5947;stop-opacity:1"/></linearGradient><linearGradient id="_Linear6" x1="0" y1="0" x2="1" y2="0" gradientUnits="userSpaceOnUse" gradientTransform="matrix(3058.38,0,0,3058.38,197.132,1438.69)"><stop offset="0" style="stop-color:#feb17a;stop-opacity:1"/><stop offset="0.35" style="stop-color:#fe8d65;stop-opacity:1"/><stop offset="0.67" style="stop-color:#c86b51;stop-opacity:1"/><stop offset="1" style="stop-color:#ac5947;stop-opacity:1"/></linearGradient><linearGradient id="_Linear8" x1="0" y1="0" x2="1" y2="0" gradientUnits="userSpaceOnUse" gradientTransform="matrix(3058.38,0,0,3058.38,197.132,1438.69)"><stop offset="0" style="stop-color:#feb17a;stop-opacity:1"/><stop offset="0.35" style="stop-color:#fe8d65;stop-opacity:1"/><stop offset="0.67" style="stop-color:#c86b51;stop-opacity:1"/><stop offset="1" style="stop-color:#ac5947;stop-opacity:1"/></linearGradient></defs></svg>